<?xml version="1.0" encoding="utf-8"?>
<!-- Generator: Adobe Illustrator 19.0.1, SVG Export Plug-In . SVG Version: 6.00 Build 0)  -->
<svg version="1.1" id="Layer_1" xmlns="http://www.w3.org/2000/svg" xmlns:xlink="http://www.w3.org/1999/xlink" x="0px" y="0px"
	 viewBox="0 0 290 33" style="enable-background:new 0 0 290 33;" xml:space="preserve">
<style type="text/css">
	.st0{fill:#4E4F50;}
	.st1{fill:#D42F2F;}
	.st2{fill:#747576;}
	.st3{fill:#4D4D4F;}
</style>
<g>
	<path class="st0" d="M0,8h3.7V18c0,1.6,0,2.6,0.1,3.1C4,21.8,4.4,22.4,5,22.8c0.6,0.5,1.4,0.7,2.4,0.7s1.8-0.2,2.4-0.6
		c0.5-0.4,0.9-1,1-1.6c0.1-0.6,0.2-1.7,0.2-3.1V8.1h3.7v9.6c0,2.2-0.1,3.8-0.3,4.7c-0.2,0.9-0.6,1.7-1.1,2.3
		c-0.5,0.6-1.2,1.1-2.2,1.5c-0.9,0.4-2.1,0.5-3.5,0.5c-1.7,0-3.1-0.2-4-0.6c-0.9-0.4-1.6-0.9-2.1-1.6s-0.9-1.3-1-2
		c-0.3-1-0.4-2.6-0.4-4.6V8z"/>
	<path class="st0" d="M16.7,8h7.3c1.4,0,2.5,0.1,3.2,0.2C28,8.3,28.6,8.6,29.2,9c0.6,0.4,1,0.9,1.4,1.5c0.4,0.6,0.6,1.4,0.6,2.2
		c0,0.9-0.2,1.7-0.7,2.4c-0.5,0.7-1.1,1.2-1.9,1.6c1.1,0.3,2,0.9,2.6,1.7c0.6,0.8,0.9,1.7,0.9,2.8c0,0.8-0.2,1.6-0.6,2.4
		c-0.4,0.8-0.9,1.4-1.6,1.9s-1.5,0.7-2.5,0.9c-0.6,0.1-2.1,0.1-4.5,0.1h-6.2V8z M20.4,11.1v4.2h2.4c1.4,0,2.3,0,2.7-0.1
		c0.6-0.1,1.1-0.3,1.5-0.7s0.5-0.8,0.5-1.4c0-0.6-0.2-1-0.5-1.4c-0.3-0.4-0.8-0.6-1.4-0.6c-0.4,0-1.4-0.1-3.1-0.1L20.4,11.1
		L20.4,11.1z M20.4,18.4v4.9h3.4c1.3,0,2.2,0,2.5-0.1c0.5-0.1,1-0.3,1.3-0.7c0.3-0.4,0.5-0.9,0.5-1.6c0-0.5-0.1-1-0.4-1.4
		c-0.3-0.4-0.7-0.7-1.2-0.8c-0.5-0.2-1.6-0.3-3.3-0.3L20.4,18.4L20.4,18.4z"/>
	<path class="st0" d="M33.5,26.3V8h7.8c1.9,0,3.4,0.2,4.3,0.5c0.9,0.3,1.6,0.9,2.1,1.8c0.5,0.8,0.8,1.8,0.8,2.9
		c0,1.4-0.4,2.5-1.2,3.4c-0.8,0.9-2,1.4-3.6,1.7c0.8,0.5,1.4,1,2,1.5c0.5,0.6,1.2,1.5,2.1,3l2.2,3.6h-4.4l-2.7-4
		c-1-1.4-1.6-2.3-1.9-2.7c-0.4-0.4-0.7-0.6-1.1-0.8c-0.4-0.1-1-0.2-1.9-0.2h-0.7v7.6L33.5,26.3L33.5,26.3z M37.2,15.8h2.7
		c1.8,0,2.9-0.1,3.3-0.2s0.8-0.4,1-0.8c0.2-0.4,0.4-0.8,0.4-1.4c0-0.6-0.2-1.1-0.5-1.5c-0.3-0.4-0.8-0.6-1.4-0.7
		c-0.3,0-1.2-0.1-2.7-0.1h-2.9V15.8z"/>
	<path class="st0" d="M50.2,26.3V8h13.5v3.1h-9.9v4.1H63v3.1h-9.2v4.9h10.2v3.1H50.2L50.2,26.3z"/>
	<path class="st0" d="M82,26.3h-4l-1.6-4.2h-7.3l-1.5,4.2h-3.9L70.8,8h3.9L82,26.3z M75.2,19.1l-2.5-6.8l-2.5,6.8H75.2z"/>
	<path class="st0" d="M82.2,26.3V8h3.7v8.1L93.4,8h5l-6.9,7.1l7.2,11.2h-4.8l-5-8.6l-3,3.1v5.5L82.2,26.3L82.2,26.3z"/>
	<path class="st1" d="M98.8,26.3V8h3.7v18.3L98.8,26.3L98.8,26.3z"/>
	<path class="st1" d="M104.3,26.3V8h12.6v3.1H108v4.3h7.7v3.1H108v7.8L104.3,26.3L104.3,26.3L104.3,26.3z"/>
	<path class="st1" d="M118,26.3V8h3.7v18.3L118,26.3L118,26.3z"/>
	<path class="st1" d="M121.7,26.3l6.3-9.5L122.2,8h4.3l3.6,5.5l3.6-5.5h4.3l-5.8,8.8l6.3,9.5h-4.4l-4.1-6.2l-4.1,6.2L121.7,26.3
		L121.7,26.3z"/>
</g>
<rect x="147" class="st2" width="0.8" height="33"/>
<g>
	<path class="st3" d="M159.8,26.4h-1.3V7.6h10.3v1.2h-9v8h8.5V18h-8.5V26.4z"/>
	<path class="st3" d="M176.9,12.2c0.6,0,1.2,0.1,1.9,0.2l-0.2,1.2c-0.6-0.1-1.2-0.2-1.8-0.2c-1.2,0-2.2,0.5-2.9,1.5
		c-0.8,1-1.1,2.3-1.1,3.8v7.7h-1.3v-14h1.1l0.1,2.5h0.1c0.6-1,1.2-1.8,1.8-2.2S176,12.2,176.9,12.2z"/>
	<path class="st3" d="M190.1,26.4l-0.3-2.2h-0.1c-0.7,0.9-1.4,1.5-2.2,1.9c-0.7,0.4-1.6,0.6-2.6,0.6c-1.4,0-2.4-0.4-3.2-1.1
		c-0.8-0.7-1.1-1.7-1.1-2.9c0-1.4,0.6-2.4,1.7-3.2c1.1-0.8,2.8-1.2,4.9-1.2l2.7-0.1v-0.9c0-1.3-0.3-2.3-0.8-3c-0.5-0.7-1.4-1-2.6-1
		c-1.3,0-2.6,0.4-4,1.1l-0.5-1.1c1.5-0.7,3.1-1.1,4.6-1.1c1.5,0,2.7,0.4,3.4,1.2c0.8,0.8,1.1,2,1.1,3.7v9.3H190.1z M185,25.5
		c1.5,0,2.7-0.4,3.5-1.3c0.9-0.9,1.3-2,1.3-3.6v-1.4l-2.4,0.1c-2,0.1-3.4,0.4-4.2,0.9c-0.8,0.5-1.3,1.3-1.3,2.4c0,0.9,0.3,1.6,0.8,2
		C183.2,25.3,184,25.5,185,25.5z"/>
	<path class="st3" d="M205.3,26.4v-9.1c0-1.4-0.3-2.4-0.9-3.1c-0.6-0.6-1.5-1-2.8-1c-1.7,0-2.9,0.4-3.7,1.3
		c-0.8,0.8-1.2,2.2-1.2,4.1v7.7h-1.3v-14h1.1l0.2,1.9h0.1c0.9-1.5,2.5-2.2,4.8-2.2c3.2,0,4.8,1.7,4.8,5.1v9.1H205.3z"/>
	<path class="st3" d="M216.7,26.7c-2,0-3.6-0.6-4.7-1.9c-1.1-1.3-1.7-3-1.7-5.3c0-2.3,0.6-4.1,1.8-5.4c1.2-1.3,2.8-1.9,4.8-1.9
		c1.2,0,2.4,0.2,3.5,0.6l-0.3,1.1c-1.2-0.4-2.3-0.6-3.2-0.6c-1.7,0-3,0.5-3.9,1.6c-0.9,1.1-1.3,2.6-1.3,4.6c0,1.9,0.4,3.4,1.3,4.4
		c0.9,1.1,2.1,1.6,3.7,1.6c1.3,0,2.4-0.2,3.5-0.7V26C219.3,26.4,218.1,26.7,216.7,26.7z"/>
	<path class="st3" d="M233.4,26.4v-9.1c0-1.4-0.3-2.4-0.9-3.1c-0.6-0.6-1.5-1-2.8-1c-1.7,0-2.9,0.4-3.7,1.3
		c-0.8,0.8-1.2,2.2-1.2,4.1v7.7h-1.3v-20h1.3v6.4l-0.1,1.8h0.1c0.5-0.8,1.2-1.4,2-1.8c0.8-0.4,1.8-0.6,3-0.6c3.2,0,4.8,1.7,4.8,5.1
		v9.1H233.4z"/>
	<path class="st3" d="M239,8.5c0-0.8,0.3-1.2,0.8-1.2c0.3,0,0.5,0.1,0.6,0.3s0.2,0.5,0.2,0.9c0,0.4-0.1,0.7-0.2,0.9
		s-0.4,0.3-0.6,0.3C239.3,9.8,239,9.4,239,8.5z M240.4,26.4h-1.3v-14h1.3V26.4z"/>
	<path class="st3" d="M253.8,22.8c0,1.3-0.5,2.2-1.4,2.9c-1,0.7-2.3,1-4.1,1c-1.9,0-3.4-0.3-4.5-0.9v-1.4c1.4,0.7,2.9,1.1,4.5,1.1
		c1.4,0,2.4-0.2,3.1-0.7c0.7-0.5,1.1-1.1,1.1-1.8c0-0.7-0.3-1.3-0.9-1.8c-0.6-0.5-1.5-1-2.8-1.4c-1.4-0.5-2.4-0.9-2.9-1.3
		c-0.6-0.4-1-0.8-1.3-1.2c-0.3-0.5-0.4-1-0.4-1.7c0-1,0.4-1.9,1.3-2.5c0.9-0.6,2.1-0.9,3.7-0.9c1.5,0,2.9,0.3,4.3,0.8l-0.5,1.2
		c-1.4-0.6-2.6-0.8-3.8-0.8c-1.1,0-2,0.2-2.7,0.6s-1,0.9-1,1.6c0,0.7,0.3,1.3,0.8,1.7c0.5,0.4,1.5,0.9,3,1.5
		c1.3,0.5,2.2,0.9,2.8,1.2c0.6,0.4,1,0.8,1.3,1.2C253.6,21.6,253.8,22.1,253.8,22.8z"/>
	<path class="st3" d="M257.2,8.5c0-0.8,0.3-1.2,0.8-1.2c0.3,0,0.5,0.1,0.6,0.3s0.2,0.5,0.2,0.9c0,0.4-0.1,0.7-0.2,0.9
		s-0.4,0.3-0.6,0.3C257.5,9.8,257.2,9.4,257.2,8.5z M258.7,26.4h-1.3v-14h1.3V26.4z"/>
	<path class="st3" d="M273.1,26.4v-9.1c0-1.4-0.3-2.4-0.9-3.1c-0.6-0.6-1.5-1-2.8-1c-1.7,0-2.9,0.4-3.7,1.3
		c-0.8,0.8-1.2,2.2-1.2,4.1v7.7h-1.3v-14h1.1l0.2,1.9h0.1c0.9-1.5,2.5-2.2,4.8-2.2c3.2,0,4.8,1.7,4.8,5.1v9.1H273.1z"/>
	<path class="st3" d="M289.8,12.4v0.9l-2.9,0.2c0.8,1,1.2,2,1.2,3.2c0,1.3-0.4,2.4-1.3,3.3c-0.9,0.8-2.1,1.3-3.6,1.3
		c-0.6,0-1.1,0-1.3-0.1c-0.5,0.3-0.9,0.6-1.2,0.9c-0.3,0.4-0.4,0.7-0.4,1.1c0,0.4,0.2,0.8,0.5,1c0.3,0.2,0.9,0.3,1.7,0.3h2.4
		c1.5,0,2.7,0.3,3.5,0.9c0.8,0.6,1.2,1.5,1.2,2.7c0,1.5-0.6,2.6-1.8,3.4c-1.2,0.8-2.9,1.2-5.1,1.2c-1.8,0-3.1-0.3-4.1-1
		c-1-0.7-1.4-1.6-1.4-2.8c0-1,0.3-1.8,0.9-2.4c0.6-0.6,1.4-1.1,2.4-1.3c-0.4-0.2-0.8-0.4-1-0.8s-0.4-0.7-0.4-1.1
		c0-0.9,0.6-1.8,1.8-2.5c-0.8-0.3-1.4-0.9-1.9-1.6c-0.5-0.7-0.7-1.5-0.7-2.5c0-1.4,0.4-2.5,1.3-3.4c0.9-0.8,2.1-1.3,3.6-1.3
		c0.9,0,1.6,0.1,2.1,0.3H289.8z M278.5,28.8c0,1.9,1.4,2.9,4.3,2.9c3.7,0,5.5-1.2,5.5-3.5c0-0.8-0.3-1.4-0.9-1.8
		c-0.6-0.4-1.5-0.6-2.8-0.6h-2.3C279.8,25.8,278.5,26.8,278.5,28.8z M279.5,16.8c0,1.1,0.3,1.9,1,2.5c0.7,0.6,1.5,0.9,2.6,0.9
		c1.2,0,2.1-0.3,2.7-0.9c0.6-0.6,0.9-1.4,0.9-2.6c0-1.2-0.3-2.1-1-2.7c-0.6-0.6-1.5-0.9-2.7-0.9c-1.1,0-2,0.3-2.6,1
		S279.5,15.6,279.5,16.8z"/>
</g>
</svg>
